# Mesh "GarageWalls_Roof_Mechanical_AFrame" exported with Unity Assets Bundle Extractor; 150 vertices, 228 indices, 384 bits per vertex
g GarageWalls_Roof_Mechanical_AFrame
# SubMesh 0
# Vertices
v -1.978292 -0.738200 -0.083380
vt 0.875554 0.623761
vn 1.000000 0.000000 0.000000
v -1.978292 -0.738200 0.083380
vt 0.910875 0.623762
vn 1.000000 0.000000 0.000000
v -1.978292 -0.360687 0.083380
vt 0.910876 0.543802
vn 1.000000 0.000000 0.000000
v -1.978292 -0.360687 -0.083380
vt 0.875556 0.543801
vn 1.000000 0.000000 0.000000
v -1.978292 -0.738200 0.083380
vt 0.910875 0.623762
vn -0.000000 0.000000 1.000000
v -2.175279 -0.738200 0.083380
vt 0.952599 0.623762
vn -0.000000 0.000000 1.000000
v -2.175279 -0.479521 0.083380
vt 0.952599 0.568972
vn -0.000000 0.000000 1.000000
v -1.978292 -0.360687 0.083380
vt 0.910876 0.543802
vn -0.000000 0.000000 1.000000
v -2.175279 -0.738200 0.083380
vt 0.798510 0.623760
vn -1.000000 0.000000 0.000000
v -2.175279 -0.738200 -0.083380
vt 0.833831 0.623761
vn -1.000000 0.000000 0.000000
v -2.175279 -0.479521 -0.083380
vt 0.833832 0.568971
vn -1.000000 0.000000 0.000000
v -2.175279 -0.479521 0.083380
vt 0.798511 0.568970
vn -1.000000 0.000000 0.000000
v -2.175279 -0.738200 -0.083380
vt 0.833831 0.623761
vn -0.000000 0.000000 -1.000000
v -1.978292 -0.738200 -0.083380
vt 0.875554 0.623761
vn -0.000000 0.000000 -1.000000
v -1.978292 -0.360687 -0.083380
vt 0.875556 0.543801
vn -0.000000 0.000000 -1.000000
v -2.175279 -0.479521 -0.083380
vt 0.833832 0.568971
vn -0.000000 0.000000 -1.000000
v -1.978292 -0.738200 -0.083380
vt 0.576616 0.071965
vn 0.000000 -1.000000 0.000001
v -2.175279 -0.738200 -0.083380
vt 0.592817 0.071965
vn 0.000000 -1.000000 0.000001
v -2.175279 -0.738200 0.083380
vt 0.592817 0.058251
vn 0.000000 -1.000000 0.000001
v -1.978292 -0.738200 0.083380
vt 0.576616 0.058251
vn 0.000000 -1.000000 0.000001
v 1.142897 -0.738200 0.083380
vt 0.715504 0.114240
vn -0.000000 0.000000 1.000000
v 0.949996 -0.738200 0.083380
vt 0.691630 0.114239
vn -0.000000 0.000000 1.000000
v 0.949996 0.235176 0.083380
vt 0.691625 0.234705
vn -0.000000 0.000000 1.000000
v 1.142897 0.121235 0.083380
vt 0.715499 0.220604
vn -0.000000 0.000000 1.000000
v 1.142897 -0.738200 -0.083380
vt 0.736142 0.114241
vn 1.000000 0.000000 -0.000001
v 1.142897 -0.738200 0.083380
vt 0.715504 0.114240
vn 1.000000 0.000000 -0.000001
v 1.142897 0.121235 0.083380
vt 0.715499 0.220604
vn 1.000000 0.000000 -0.000001
v 1.142897 0.121235 -0.083380
vt 0.736138 0.220605
vn 1.000000 0.000000 -0.000001
v 0.949996 -0.738200 0.083380
vt 0.780653 0.114243
vn -1.000000 0.000000 0.000000
v 0.949996 -0.738200 -0.083380
vt 0.760015 0.114242
vn -1.000000 0.000000 0.000000
v 0.949996 0.235176 -0.083380
vt 0.760010 0.234707
vn -1.000000 0.000000 0.000000
v 0.949996 0.235176 0.083380
vt 0.780648 0.234708
vn -1.000000 0.000000 0.000000
v 0.949996 -0.738200 -0.083380
vt 0.760015 0.114242
vn -0.000000 0.000000 -1.000000
v 1.142897 -0.738200 -0.083380
vt 0.736142 0.114241
vn -0.000000 0.000000 -1.000000
v 1.142897 0.121235 -0.083380
vt 0.736138 0.220605
vn -0.000000 0.000000 -1.000000
v 0.949996 0.235176 -0.083380
vt 0.760010 0.234707
vn -0.000000 0.000000 -1.000000
v 1.142897 -0.738200 0.083380
vt 0.576616 0.058253
vn -0.000000 -1.000000 0.000000
v 1.142897 -0.738200 -0.083380
vt 0.576616 0.072258
vn -0.000000 -1.000000 0.000000
v 0.949996 -0.738200 -0.083380
vt 0.592817 0.072258
vn -0.000000 -1.000000 0.000000
v 0.949996 -0.738200 0.083380
vt 0.592817 0.058253
vn -0.000000 -1.000000 0.000000
v 2.523293 -0.762375 -0.115284
vt 0.350913 0.148261
vn -0.000000 0.000000 -1.000000
v 2.561119 -0.696860 -0.115284
vt 0.350913 0.156352
vn -0.000000 0.000000 -1.000000
v 1.802515 -0.258880 -0.115284
vt 0.444608 0.156352
vn -0.000002 0.000000 -1.000000
v -0.028197 0.710729 -0.115284
vt 0.666045 0.148261
vn -0.000000 0.000000 -1.000000
v 1.184773 0.097773 -0.115284
vt 0.520904 0.156352
vn -0.000000 0.000000 -1.000000
v 0.009628 0.776244 -0.115284
vt 0.666045 0.156353
vn -0.000000 0.000000 -1.000000
v -0.028197 0.710729 0.114192
vt 0.666045 0.123716
vn -0.500000 -0.866026 0.000000
v 2.523293 -0.762375 0.114192
vt 0.350913 0.123716
vn -0.500000 -0.866026 0.000000
v 2.523293 -0.762375 -0.115284
vt 0.350913 0.148261
vn -0.500000 -0.866026 0.000000
v -0.028197 0.710729 -0.115284
vt 0.666045 0.148261
vn -0.500000 -0.866026 0.000000
v 2.561119 -0.696860 0.114192
vt 0.350913 0.115624
vn -0.000000 0.000000 1.000000
v 2.523293 -0.762375 0.114192
vt 0.350913 0.123716
vn -0.000000 0.000000 1.000000
v -0.028197 0.710729 0.114192
vt 0.666045 0.123716
vn -0.000001 0.000000 1.000000
v 0.009628 0.776244 0.114192
vt 0.666045 0.115624
vn -0.000001 0.000000 1.000000
v 2.561119 -0.824303 0.133870
vt 0.563527 0.570632
vn -0.000000 0.000000 1.000000
v -2.561119 -0.824303 0.133870
vt 0.021272 0.570627
vn -0.000000 0.000000 1.000000
v -2.561119 -0.696860 0.133870
vt 0.021271 0.584118
vn -0.000000 0.000000 1.000000
v 2.561119 -0.696860 0.133870
vt 0.563527 0.584124
vn -0.000000 0.000000 1.000000
v -2.561119 -0.696860 0.133870
vt 0.021271 0.584118
vn -0.000000 1.000000 -0.000000
v -2.561119 -0.696860 -0.133870
vt 0.021271 0.612462
vn -0.000000 1.000000 -0.000000
v 2.561119 -0.696860 -0.133870
vt 0.563527 0.612468
vn -0.000000 1.000000 -0.000000
v 2.561119 -0.696860 0.133870
vt 0.563527 0.584124
vn -0.000000 1.000000 -0.000000
v 2.561119 -0.824303 0.133870
vt 0.563527 0.570632
vn -0.000000 -1.000000 0.000000
v 2.561119 -0.824303 -0.133870
vt 0.563527 0.542289
vn -0.000000 -1.000000 0.000000
v -2.561119 -0.824303 -0.133870
vt 0.021272 0.542283
vn -0.000000 -1.000000 0.000000
v -2.561119 -0.824303 0.133870
vt 0.021272 0.570627
vn -0.000000 -1.000000 0.000000
v 2.561119 -0.824303 -0.133870
vt 0.563527 0.625959
vn -0.000000 0.000000 -1.000000
v 2.561119 -0.696860 -0.133870
vt 0.563527 0.612468
vn -0.000000 0.000000 -1.000000
v -2.561119 -0.696860 -0.133870
vt 0.021271 0.612462
vn -0.000000 0.000000 -1.000000
v -2.561119 -0.824303 -0.133870
vt 0.021271 0.625954
vn -0.000000 0.000000 -1.000000
v 2.561119 -0.696860 0.133870
vt 0.366048 0.471968
vn 1.000000 0.000000 0.000000
v 2.561119 -0.696860 -0.133870
vt 0.366048 0.461362
vn 1.000000 0.000000 0.000000
v 2.561119 -0.824303 -0.133870
vt 0.361000 0.461362
vn 1.000000 0.000000 0.000000
v 2.561119 -0.824303 0.133870
vt 0.361000 0.471968
vn 1.000000 0.000000 0.000000
v -2.561119 -0.824303 0.133870
vt 0.366048 0.461063
vn -1.000000 0.000000 0.000000
v -2.561119 -0.824303 -0.133870
vt 0.366048 0.450456
vn -1.000000 0.000000 0.000000
v -2.561119 -0.696860 -0.133870
vt 0.361000 0.450456
vn -1.000000 0.000000 0.000000
v -2.561119 -0.696860 0.133870
vt 0.361000 0.461063
vn -1.000000 0.000000 0.000000
v -2.561119 -0.696860 0.114192
vt 0.021744 0.156354
vn -0.000000 0.000000 1.000000
v -0.009628 0.776244 0.114192
vt 0.336877 0.156351
vn -0.000000 0.000000 1.000000
v 0.028198 0.710729 0.114192
vt 0.336877 0.148259
vn -0.000000 0.000000 1.000000
v -2.523293 -0.762375 0.114192
vt 0.021744 0.148263
vn -0.000000 0.000000 1.000000
v 0.028197 0.710729 -0.115284
vt 0.336877 0.123714
vn 0.500000 -0.866026 0.000000
v -2.523293 -0.762375 -0.115284
vt 0.021744 0.123717
vn 0.500000 -0.866026 0.000000
v -2.523293 -0.762375 0.114192
vt 0.021744 0.148263
vn 0.500000 -0.866026 0.000000
v 0.028198 0.710729 0.114192
vt 0.336877 0.148259
vn 0.500000 -0.866026 0.000000
v -0.009628 0.776244 -0.115284
vt 0.336877 0.115622
vn -0.000000 0.000000 -1.000000
v -2.561119 -0.696860 -0.115284
vt 0.021744 0.115626
vn -0.000000 0.000000 -1.000000
v -2.523293 -0.762375 -0.115284
vt 0.021744 0.123717
vn -0.000000 0.000000 -1.000000
v 0.028197 0.710729 -0.115284
vt 0.336877 0.123714
vn -0.000000 0.000000 -1.000000
v -0.098382 -0.738200 0.083380
vt 0.499585 0.082285
vn -1.000000 0.000000 0.000000
v -0.098382 -0.738200 -0.083380
vt 0.499583 0.066474
vn -1.000000 0.000000 0.000000
v -0.098382 0.824303 -0.083380
vt 0.351432 0.066494
vn -1.000000 0.000000 0.000000
v -0.098382 0.824303 0.083380
vt 0.351434 0.082305
vn -1.000000 0.000000 0.000000
v 0.098734 -0.738200 -0.083380
vt 0.499581 0.047784
vn 1.000000 0.000000 0.000000
v 0.098734 -0.738200 0.083380
vt 0.499579 0.031972
vn 1.000000 0.000000 0.000000
v 0.098734 0.824303 0.083380
vt 0.351427 0.031992
vn 1.000000 0.000000 0.000000
v 0.098734 0.824303 -0.083380
vt 0.351429 0.047804
vn 1.000000 0.000000 0.000000
v -0.098382 0.824303 0.083380
vt 0.351424 0.013302
vn -0.000000 0.000000 1.000000
v 0.098734 0.824303 0.083380
vt 0.351427 0.031992
vn -0.000000 0.000000 1.000000
v 0.098734 -0.738200 0.083380
vt 0.499579 0.031972
vn -0.000000 0.000000 1.000000
v -0.098382 -0.738200 0.083380
vt 0.499576 0.013282
vn -0.000000 0.000000 1.000000
v -0.098382 -0.738200 -0.083380
vt 0.499583 0.066474
vn -0.000000 0.000000 -1.000000
v 0.098734 -0.738200 -0.083380
vt 0.499581 0.047784
vn -0.000000 0.000000 -1.000000
v 0.098734 0.824303 -0.083380
vt 0.351429 0.047804
vn -0.000000 0.000000 -1.000000
v -0.098382 0.824303 -0.083380
vt 0.351432 0.066494
vn -0.000000 0.000000 -1.000000
v -0.098382 -0.738200 0.083380
vt 0.592817 0.058250
vn -0.000000 -1.000000 -0.000000
v 0.098734 -0.738200 0.083380
vt 0.576616 0.058250
vn -0.000000 -1.000000 -0.000000
v 0.098734 -0.738200 -0.083380
vt 0.576616 0.071956
vn -0.000000 -1.000000 -0.000000
v -0.098382 -0.738200 -0.083380
vt 0.592817 0.071956
vn -0.000000 -1.000000 -0.000000
v -0.945978 -0.738200 0.083380
vt 0.919480 0.032566
vn -0.000000 0.000000 1.000000
v -1.146208 -0.738200 0.083380
vt 0.919474 0.007768
vn -0.000000 0.000000 1.000000
v -1.146208 0.121235 0.083380
vt 0.813038 0.007792
vn -0.000000 0.000000 1.000000
v -0.945978 0.235176 0.083380
vt 0.798932 0.032593
vn -0.000000 0.000000 1.000000
v -1.146208 -0.738200 0.083380
vt 0.919495 0.098668
vn -1.000000 0.000000 0.000000
v -1.146208 -0.738200 -0.083380
vt 0.919490 0.078015
vn -1.000000 0.000000 0.000000
v -1.146208 0.121235 -0.083380
vt 0.813054 0.078039
vn -1.000000 0.000000 0.000000
v -1.146208 0.121235 0.083380
vt 0.813058 0.098692
vn -1.000000 0.000000 0.000000
v -0.945978 -0.738200 -0.083380
vt 0.919485 0.053218
vn 1.000000 0.000000 0.000000
v -0.945978 -0.738200 0.083380
vt 0.919480 0.032566
vn 1.000000 0.000000 0.000000
v -0.945978 0.235176 0.083380
vt 0.798932 0.032593
vn 1.000000 0.000000 0.000000
v -0.945978 0.235176 -0.083380
vt 0.798937 0.053245
vn 1.000000 0.000000 0.000000
v -1.146208 -0.738200 -0.083380
vt 0.919490 0.078015
vn -0.000000 0.000000 -1.000000
v -0.945978 -0.738200 -0.083380
vt 0.919485 0.053218
vn -0.000000 0.000000 -1.000000
v -0.945978 0.235176 -0.083380
vt 0.798937 0.053245
vn -0.000000 0.000000 -1.000000
v -1.146208 0.121235 -0.083380
vt 0.813054 0.078039
vn -0.000000 0.000000 -1.000000
v -0.945978 -0.738200 0.083380
vt 0.576616 0.058249
vn -0.000000 -1.000000 0.000000
v -0.945978 -0.738200 -0.083380
vt 0.576616 0.071742
vn -0.000000 -1.000000 0.000000
v -1.146208 -0.738200 -0.083380
vt 0.592817 0.071742
vn -0.000000 -1.000000 0.000000
v -1.146208 -0.738200 0.083380
vt 0.592817 0.058249
vn -0.000000 -1.000000 0.000000
v 1.978292 -0.738200 0.083380
vt 0.875554 0.623761
vn -1.000000 0.000000 0.000000
v 1.978292 -0.738200 -0.083380
vt 0.910875 0.623762
vn -1.000000 0.000000 0.000000
v 1.978292 -0.360687 -0.083380
vt 0.910876 0.543802
vn -1.000000 0.000000 0.000000
v 1.978292 -0.360687 0.083380
vt 0.875556 0.543801
vn -1.000000 0.000000 0.000000
v 1.978292 -0.738200 -0.083380
vt 0.910875 0.623762
vn -0.000000 0.000000 -1.000000
v 2.175279 -0.738200 -0.083380
vt 0.952599 0.623762
vn -0.000000 0.000000 -1.000000
v 2.175279 -0.479521 -0.083380
vt 0.952599 0.568972
vn -0.000000 0.000000 -1.000000
v 1.978292 -0.360687 -0.083380
vt 0.910876 0.543802
vn -0.000000 0.000000 -1.000000
v 2.175279 -0.738200 -0.083380
vt 0.798510 0.623760
vn 1.000000 0.000000 0.000000
v 2.175279 -0.738200 0.083380
vt 0.833831 0.623761
vn 1.000000 0.000000 0.000000
v 2.175279 -0.479521 0.083380
vt 0.833832 0.568971
vn 1.000000 0.000000 0.000000
v 2.175279 -0.479521 -0.083380
vt 0.798511 0.568970
vn 1.000000 0.000000 0.000000
v 2.175279 -0.738200 0.083380
vt 0.833831 0.623761
vn -0.000000 0.000000 1.000000
v 1.978292 -0.738200 0.083380
vt 0.875554 0.623761
vn -0.000000 0.000000 1.000000
v 1.978292 -0.360687 0.083380
vt 0.875556 0.543801
vn -0.000000 0.000000 1.000000
v 2.175279 -0.479521 0.083380
vt 0.833832 0.568971
vn -0.000000 0.000000 1.000000
v 1.978292 -0.738200 0.083380
vt 0.576616 0.071965
vn -0.000000 -1.000000 -0.000001
v 2.175279 -0.738200 0.083380
vt 0.592817 0.071965
vn -0.000000 -1.000000 -0.000001
v 2.175279 -0.738200 -0.083380
vt 0.592817 0.058251
vn -0.000000 -1.000000 -0.000001
v 1.978292 -0.738200 -0.083380
vt 0.576616 0.058251
vn -0.000000 -1.000000 -0.000001
# Faces (1 to 150)
g GarageWalls_Roof_Mechanical_AFrame_0
f -148/-148/-148 -149/-149/-149 -150/-150/-150
f -147/-147/-147 -148/-148/-148 -150/-150/-150
f -144/-144/-144 -145/-145/-145 -146/-146/-146
f -143/-143/-143 -144/-144/-144 -146/-146/-146
f -140/-140/-140 -141/-141/-141 -142/-142/-142
f -139/-139/-139 -140/-140/-140 -142/-142/-142
f -136/-136/-136 -137/-137/-137 -138/-138/-138
f -135/-135/-135 -136/-136/-136 -138/-138/-138
f -132/-132/-132 -133/-133/-133 -134/-134/-134
f -131/-131/-131 -132/-132/-132 -134/-134/-134
f -128/-128/-128 -129/-129/-129 -130/-130/-130
f -127/-127/-127 -128/-128/-128 -130/-130/-130
f -124/-124/-124 -125/-125/-125 -126/-126/-126
f -123/-123/-123 -124/-124/-124 -126/-126/-126
f -120/-120/-120 -121/-121/-121 -122/-122/-122
f -119/-119/-119 -120/-120/-120 -122/-122/-122
f -116/-116/-116 -117/-117/-117 -118/-118/-118
f -115/-115/-115 -116/-116/-116 -118/-118/-118
f -112/-112/-112 -113/-113/-113 -114/-114/-114
f -111/-111/-111 -112/-112/-112 -114/-114/-114
f -108/-108/-108 -109/-109/-109 -110/-110/-110
f -108/-108/-108 -110/-110/-110 -107/-107/-107
f -106/-106/-106 -108/-108/-108 -107/-107/-107
f -105/-105/-105 -106/-106/-106 -107/-107/-107
f -102/-102/-102 -103/-103/-103 -104/-104/-104
f -101/-101/-101 -102/-102/-102 -104/-104/-104
f -98/-98/-98 -99/-99/-99 -100/-100/-100
f -97/-97/-97 -98/-98/-98 -100/-100/-100
f -94/-94/-94 -95/-95/-95 -96/-96/-96
f -93/-93/-93 -94/-94/-94 -96/-96/-96
f -90/-90/-90 -91/-91/-91 -92/-92/-92
f -89/-89/-89 -90/-90/-90 -92/-92/-92
f -86/-86/-86 -87/-87/-87 -88/-88/-88
f -85/-85/-85 -86/-86/-86 -88/-88/-88
f -82/-82/-82 -83/-83/-83 -84/-84/-84
f -81/-81/-81 -82/-82/-82 -84/-84/-84
f -78/-78/-78 -79/-79/-79 -80/-80/-80
f -77/-77/-77 -78/-78/-78 -80/-80/-80
f -74/-74/-74 -75/-75/-75 -76/-76/-76
f -73/-73/-73 -74/-74/-74 -76/-76/-76
f -70/-70/-70 -71/-71/-71 -72/-72/-72
f -69/-69/-69 -70/-70/-70 -72/-72/-72
f -66/-66/-66 -67/-67/-67 -68/-68/-68
f -65/-65/-65 -66/-66/-66 -68/-68/-68
f -62/-62/-62 -63/-63/-63 -64/-64/-64
f -61/-61/-61 -62/-62/-62 -64/-64/-64
f -58/-58/-58 -59/-59/-59 -60/-60/-60
f -57/-57/-57 -58/-58/-58 -60/-60/-60
f -54/-54/-54 -55/-55/-55 -56/-56/-56
f -53/-53/-53 -54/-54/-54 -56/-56/-56
f -50/-50/-50 -51/-51/-51 -52/-52/-52
f -49/-49/-49 -50/-50/-50 -52/-52/-52
f -46/-46/-46 -47/-47/-47 -48/-48/-48
f -45/-45/-45 -46/-46/-46 -48/-48/-48
f -42/-42/-42 -43/-43/-43 -44/-44/-44
f -41/-41/-41 -42/-42/-42 -44/-44/-44
f -38/-38/-38 -39/-39/-39 -40/-40/-40
f -37/-37/-37 -38/-38/-38 -40/-40/-40
f -34/-34/-34 -35/-35/-35 -36/-36/-36
f -33/-33/-33 -34/-34/-34 -36/-36/-36
f -30/-30/-30 -31/-31/-31 -32/-32/-32
f -29/-29/-29 -30/-30/-30 -32/-32/-32
f -26/-26/-26 -27/-27/-27 -28/-28/-28
f -25/-25/-25 -26/-26/-26 -28/-28/-28
f -22/-22/-22 -23/-23/-23 -24/-24/-24
f -21/-21/-21 -22/-22/-22 -24/-24/-24
f -18/-18/-18 -19/-19/-19 -20/-20/-20
f -17/-17/-17 -18/-18/-18 -20/-20/-20
f -14/-14/-14 -15/-15/-15 -16/-16/-16
f -13/-13/-13 -14/-14/-14 -16/-16/-16
f -10/-10/-10 -11/-11/-11 -12/-12/-12
f -9/-9/-9 -10/-10/-10 -12/-12/-12
f -6/-6/-6 -7/-7/-7 -8/-8/-8
f -5/-5/-5 -6/-6/-6 -8/-8/-8
f -2/-2/-2 -3/-3/-3 -4/-4/-4
f -1/-1/-1 -2/-2/-2 -4/-4/-4

