# Mesh "GarageWalls_Roof_Mechanical_CenterBeam" exported with Unity Assets Bundle Extractor; 16 vertices, 24 indices, 384 bits per vertex
g GarageWalls_Roof_Mechanical_CenterBeam
# SubMesh 0
# Vertices
v -0.127500 -0.127500 -3.839929
vt 0.021767 0.321247
vn -1.000000 0.000000 0.000000
v -0.127500 0.127500 -3.839929
vt 0.021768 0.342889
vn -1.000000 0.000000 0.000000
v -0.127500 0.127500 3.839929
vt 0.652013 0.342861
vn -1.000000 0.000000 0.000000
v -0.127500 -0.127500 3.839929
vt 0.652012 0.321219
vn -1.000000 0.000000 0.000000
v -0.127500 -0.127500 -3.839929
vt 0.021767 0.321247
vn -0.000000 -1.000000 0.000000
v -0.127500 -0.127500 3.839929
vt 0.652012 0.321219
vn -0.000000 -1.000000 0.000000
v 0.127500 -0.127500 3.839928
vt 0.652011 0.299577
vn -0.000000 -1.000000 0.000000
v 0.127500 -0.127500 -3.839929
vt 0.021766 0.299606
vn -0.000000 -1.000000 0.000000
v 0.127500 0.127500 3.839928
vt 0.652010 0.277936
vn 1.000000 0.000000 0.000000
v 0.127500 0.127500 -3.839929
vt 0.021765 0.277964
vn 1.000000 0.000000 0.000000
v 0.127500 -0.127500 -3.839929
vt 0.021766 0.299606
vn 1.000000 0.000000 0.000000
v 0.127500 -0.127500 3.839928
vt 0.652011 0.299577
vn 1.000000 0.000000 0.000000
v -0.127500 0.127500 3.839929
vt 0.560693 0.330018
vn 0.000005 0.000000 1.000000
v 0.127500 0.127500 3.839928
vt 0.625618 0.330015
vn 0.000005 0.000000 1.000000
v 0.127500 -0.127500 3.839928
vt 0.603976 0.330016
vn 0.000005 0.000000 1.000000
v -0.127500 -0.127500 3.839929
vt 0.582335 0.330017
vn 0.000005 0.000000 1.000000
# Faces (1 to 16)
g GarageWalls_Roof_Mechanical_CenterBeam_0
f -14/-14/-14 -15/-15/-15 -16/-16/-16
f -13/-13/-13 -14/-14/-14 -16/-16/-16
f -10/-10/-10 -11/-11/-11 -12/-12/-12
f -9/-9/-9 -10/-10/-10 -12/-12/-12
f -6/-6/-6 -7/-7/-7 -8/-8/-8
f -5/-5/-5 -6/-6/-6 -8/-8/-8
f -2/-2/-2 -3/-3/-3 -4/-4/-4
f -1/-1/-1 -2/-2/-2 -4/-4/-4

