# Mesh "GarageWalls_Segment_EndCap_02" exported with Unity Assets Bundle Extractor; 222 vertices, 408 indices, 384 bits per vertex
g GarageWalls_Segment_EndCap_02
# SubMesh 0
# Vertices
v -0.000000 0.000000 -2.549999
vt 0.595746 0.011127
vn 1.000000 0.000000 0.000000
v -0.000000 0.080566 -2.385301
vt 0.619745 0.022871
vn 1.000000 0.000000 0.000000
v -0.000000 1.280926 -2.385301
vt 0.619726 0.197795
vn 1.000000 0.000000 0.000000
v -0.000000 1.362129 -2.549999
vt 0.595722 0.209628
vn 1.000000 0.000000 0.000000
v -0.000000 1.443332 -2.385301
vt 0.619723 0.221465
vn 1.000000 0.000000 0.000000
v -0.000000 2.551511 -2.385301
vt 0.619702 0.382957
vn 1.000000 0.000000 0.000000
v -0.000000 2.828242 -2.549999
vt 0.595698 0.422913
vn 1.000000 0.000000 0.000000
v -0.000000 1.362129 -2.549999
vt 0.595722 0.209628
vn -0.000000 0.000000 -1.000000
v -0.240972 1.362129 -2.549999
vt 0.560605 0.209624
vn -0.000000 0.000000 -1.000000
v -0.240972 0.000000 -2.549999
vt 0.560632 0.011123
vn -0.000000 0.000000 -1.000000
v -0.000000 0.000000 -2.549999
vt 0.595750 0.011128
vn -0.000000 0.000000 -1.000000
v -0.240972 2.828242 -2.549999
vt 0.560580 0.422908
vn -0.000000 0.000000 -1.000000
v -0.000000 2.828242 -2.549999
vt 0.595698 0.422913
vn -0.000000 0.000000 -1.000000
v -0.000000 1.443332 -2.385301
vt 0.619723 0.221465
vn -0.000000 0.000000 1.000000
v -0.151479 1.443332 -2.385301
vt 0.641798 0.221468
vn -0.000000 0.000000 1.000000
v -0.151479 2.551511 -2.385301
vt 0.641776 0.382960
vn -0.000000 0.000000 1.000000
v -0.000000 2.551511 -2.385301
vt 0.619702 0.382957
vn -0.000000 0.000000 1.000000
v -0.000000 0.080566 -2.385301
vt 0.619745 0.022871
vn -0.000000 0.000000 1.000000
v -0.151479 0.080566 -2.385301
vt 0.641821 0.022874
vn -0.000000 0.000000 1.000000
v -0.151479 1.280926 -2.385301
vt 0.641800 0.197800
vn -0.000000 0.000000 1.000000
v -0.000000 1.280926 -2.385301
vt 0.619726 0.197795
vn -0.000000 0.000000 1.000000
v -0.240972 2.828242 -2.549999
vt 0.012307 0.787167
vn -0.000000 1.000000 0.000000
v -0.000000 2.828242 -2.549999
vt 0.012307 0.789917
vn -0.000000 1.000000 0.000000
v -0.000000 2.828242 -1.729481
vt 0.021669 0.789917
vn -0.000000 1.000000 0.000000
v -0.240972 2.828242 -1.729481
vt 0.021669 0.787167
vn -0.000000 1.000000 0.000000
v -0.240972 2.828242 -0.820517
vt 0.032040 0.787167
vn -0.000000 1.000000 0.000000
v -0.000000 2.828242 -0.820517
vt 0.032040 0.789917
vn -0.000000 1.000000 0.000000
v -0.000000 2.828242 0.000000
vt 0.041402 0.789917
vn -0.000000 1.000000 0.000000
v -0.240972 2.828242 0.000000
vt 0.041402 0.787167
vn -0.000000 1.000000 0.000000
v -0.240972 2.828242 -1.729481
vt 0.021669 0.787167
vn -1.000000 0.000000 0.000000
v -0.240972 1.362129 -1.729481
vt 0.021669 0.771270
vn -1.000000 0.000000 0.000000
v -0.240972 1.362129 -2.549999
vt 0.012307 0.771270
vn -1.000000 0.000000 0.000000
v -0.240972 2.828242 -2.549999
vt 0.012307 0.787167
vn -1.000000 0.000000 0.000000
v -0.240972 0.000000 -1.729481
vt 0.021669 0.755729
vn -1.000000 0.000000 0.000000
v -0.240972 0.000000 -2.549999
vt 0.012307 0.755729
vn -1.000000 0.000000 0.000000
v -0.240972 1.362129 -0.820517
vt 0.032040 0.771270
vn -1.000000 0.000000 0.000000
v -0.240972 2.828242 -0.820517
vt 0.032040 0.787167
vn -1.000000 0.000000 0.000000
v -0.240972 1.362129 0.000000
vt 0.041402 0.771270
vn -1.000000 0.000000 0.000000
v -0.240972 0.000000 0.000000
vt 0.041402 0.755729
vn -1.000000 0.000000 0.000000
v -0.240972 0.000000 -0.820517
vt 0.032040 0.755729
vn -1.000000 0.000000 0.000000
v -0.240972 2.828242 0.000000
vt 0.041402 0.787167
vn -1.000000 0.000000 0.000000
v -0.240972 0.000000 -1.729481
vt 0.021669 0.755729
vn -0.000000 -1.000000 0.000000
v -0.000000 0.000000 -1.729481
vt 0.021669 0.752979
vn -0.000000 -1.000000 0.000000
v -0.000000 0.000000 -2.549999
vt 0.012307 0.752979
vn -0.000000 -1.000000 0.000000
v -0.240972 0.000000 -2.549999
vt 0.012307 0.755729
vn -0.000000 -1.000000 0.000000
v -0.000000 0.000000 -0.820517
vt 0.032040 0.752979
vn -0.000000 -1.000000 0.000000
v -0.240972 0.000000 -0.820517
vt 0.032040 0.755729
vn -0.000000 -1.000000 0.000000
v -0.000000 0.000000 0.000000
vt 0.041402 0.752979
vn -0.000000 -1.000000 0.000000
v -0.240972 0.000000 0.000000
vt 0.041402 0.755729
vn -0.000000 -1.000000 0.000000
v -0.000000 0.080566 -2.385301
vt 0.742618 0.033124
vn 1.000000 0.000000 0.000000
v -0.000000 0.000000 -2.549999
vt 0.730875 0.009124
vn 1.000000 0.000000 0.000000
v -0.000000 0.000000 -1.729481
vt 0.730881 0.128697
vn 1.000000 0.000000 0.000000
v -0.000000 0.080566 -1.818037
vt 0.742619 0.115791
vn 1.000000 0.000000 0.000000
v -0.000000 0.080566 -1.640926
vt 0.742620 0.141603
vn 1.000000 0.000000 0.000000
v -0.000000 0.000000 -0.820517
vt 0.730881 0.261159
vn 1.000000 0.000003 0.000000
v -0.000000 0.080566 -0.909074
vt 0.742624 0.248253
vn 1.000000 0.000003 0.000000
v -0.000000 0.080566 -0.731963
vt 0.742624 0.274065
vn 1.000000 0.000003 0.000000
v -0.000000 0.080566 -0.164698
vt 0.742625 0.356729
vn 1.000000 0.000000 0.000000
v -0.000000 0.000000 0.000000
vt 0.730886 0.380732
vn 1.000000 0.000000 0.000000
v -0.000000 2.828242 -2.549999
vt 0.835814 0.009568
vn 1.000000 0.000000 0.000000
v -0.000000 2.551511 -2.385301
vt 0.806105 0.033574
vn 1.000000 0.000000 0.000000
v -0.000000 2.551511 -1.818037
vt 0.806118 0.116240
vn 1.000000 0.000000 0.000000
v -0.000000 2.828242 -1.729481
vt 0.835834 0.129141
vn 1.000000 0.000000 0.000000
v -0.000000 2.551511 -1.640926
vt 0.806124 0.142052
vn 1.000000 -0.000001 0.000000
v -0.000000 2.551511 -0.909074
vt 0.806140 0.248700
vn 1.000000 -0.000001 0.000000
v -0.000000 2.828242 -0.820517
vt 0.835856 0.261602
vn 1.000000 -0.000001 0.000000
v -0.000000 2.551511 -0.731963
vt 0.806146 0.274511
vn 1.000000 -0.000001 0.000000
v -0.000000 2.828242 0.000000
vt 0.835876 0.381175
vn 1.000000 0.000000 0.000000
v -0.000000 2.551511 -0.164698
vt 0.806159 0.357177
vn 1.000000 0.000000 0.000000
v -0.000000 1.749250 -1.640926
vt 0.494569 0.252092
vn 1.000000 0.000000 0.000000
v -0.000000 1.280926 -1.818037
vt 0.520392 0.183850
vn 1.000000 0.000000 0.000000
v -0.000000 0.080566 -1.818037
vt 0.520423 0.008927
vn 1.000000 0.000000 0.000000
v -0.000000 0.080566 -1.640926
vt 0.494614 0.008922
vn 1.000000 0.000000 0.000000
v -0.000000 1.443332 -1.818037
vt 0.520391 0.207518
vn 1.000000 0.000000 0.000000
v -0.000000 1.917593 -1.640926
vt 0.494565 0.276626
vn 1.000000 0.000000 0.000000
v -0.000000 2.551511 -1.640926
vt 0.494548 0.369005
vn 1.000000 0.000000 0.000000
v -0.000000 2.551511 -1.818037
vt 0.520358 0.369011
vn 1.000000 0.000000 0.000000
v -0.000000 2.551511 -1.818037
vt 0.520358 0.369011
vn -0.000000 0.000000 -1.000000
v -0.151479 2.551511 -1.818037
vt 0.542435 0.369013
vn -0.000000 0.000000 -1.000000
v -0.151479 1.443332 -1.818037
vt 0.542467 0.207522
vn -0.000000 0.000000 -1.000000
v -0.000000 1.443332 -1.818037
vt 0.520391 0.207518
vn -0.000000 0.000000 -1.000000
v -0.151479 0.080566 -1.818037
vt 0.542498 0.008931
vn -0.000000 0.000000 -1.000000
v -0.000000 0.080566 -1.818037
vt 0.520423 0.008927
vn -0.000000 0.000000 -1.000000
v -0.000000 1.280926 -1.818037
vt 0.520392 0.183850
vn -0.000000 0.000000 -1.000000
v -0.151479 1.280926 -1.818037
vt 0.542467 0.183856
vn -0.000000 0.000000 -1.000000
v -0.000000 0.080566 -1.640926
vt 0.494614 0.008922
vn -0.000000 0.000000 1.000000
v -0.151479 0.080566 -1.640926
vt 0.472536 0.008919
vn -0.000000 0.000000 1.000000
v -0.151479 1.749250 -1.640926
vt 0.472496 0.252090
vn -0.000000 0.000000 1.000000
v -0.000000 1.749250 -1.640926
vt 0.494569 0.252092
vn -0.000000 0.000000 1.000000
v -0.000000 1.917593 -1.640926
vt 0.494565 0.276626
vn -0.000000 0.000000 1.000000
v -0.151479 1.917593 -1.640926
vt 0.472491 0.276624
vn -0.000000 0.000000 1.000000
v -0.151479 2.551511 -1.640926
vt 0.472474 0.369001
vn -0.000000 0.000000 1.000000
v -0.000000 2.551511 -1.640926
vt 0.494548 0.369005
vn -0.000000 0.000000 1.000000
v -0.151479 0.080566 -1.818037
vt 0.764693 0.115790
vn -0.000000 1.000000 0.000000
v -0.151479 0.080566 -2.385301
vt 0.764693 0.033124
vn -0.000000 1.000000 0.000000
v -0.000000 0.080566 -2.385301
vt 0.742618 0.033124
vn -0.000000 1.000000 0.000000
v -0.000000 0.080566 -1.818037
vt 0.742619 0.115791
vn -0.000000 1.000000 0.000000
v -0.000000 2.551511 -1.818037
vt 0.806118 0.116240
vn -0.000000 -1.000000 -0.000000
v -0.000000 2.551511 -2.385301
vt 0.806105 0.033574
vn -0.000000 -1.000000 -0.000000
v -0.151479 2.551511 -2.385301
vt 0.784031 0.033577
vn -0.000000 -1.000000 -0.000000
v -0.151479 2.551511 -1.818037
vt 0.784043 0.116242
vn -0.000000 -1.000000 -0.000000
v -0.151479 2.551511 -1.818037
vt 0.250311 0.365763
vn 1.000000 0.000000 0.000000
v -0.151479 2.551511 -2.385301
vt 0.332978 0.365763
vn 1.000000 0.000000 0.000000
v -0.151479 1.443332 -2.385301
vt 0.332978 0.204270
vn 1.000000 0.000000 0.000000
v -0.151479 1.443332 -1.818037
vt 0.250311 0.204270
vn 1.000000 0.000000 0.000000
v -0.000000 1.443332 -1.818037
vt 0.905429 0.237590
vn 1.000000 0.000000 0.000000
v -0.000000 1.443332 -2.385301
vt 0.905430 0.156929
vn 1.000000 0.000000 0.000000
v -0.000000 1.280926 -2.385301
vt 0.878974 0.156929
vn 1.000000 0.000000 0.000000
v -0.000000 1.280926 -1.818037
vt 0.878973 0.237590
vn 1.000000 0.000000 0.000000
v -0.000000 1.280926 -1.818037
vt 0.878973 0.237590
vn -0.000000 -1.000000 0.000000
v -0.000000 1.280926 -2.385301
vt 0.878974 0.156929
vn -0.000000 -1.000000 0.000000
v -0.151479 1.280926 -2.385301
vt 0.857466 0.156929
vn -0.000000 -1.000000 0.000000
v -0.151479 1.280926 -1.818037
vt 0.857465 0.237590
vn -0.000000 -1.000000 0.000000
v -0.151479 1.280926 -1.818037
vt 0.250312 0.185869
vn 1.000000 0.000000 0.000000
v -0.151479 1.280926 -2.385301
vt 0.332978 0.185869
vn 1.000000 0.000000 0.000000
v -0.151479 0.080566 -2.385301
vt 0.332979 0.010941
vn 1.000000 0.000000 0.000000
v -0.151479 0.080566 -1.818037
vt 0.250313 0.010940
vn 1.000000 0.000000 0.000000
v -0.151479 1.443332 -1.818037
vt 0.926968 0.237590
vn -0.000000 1.000000 0.000000
v -0.151479 1.443332 -2.385301
vt 0.926969 0.156929
vn -0.000000 1.000000 0.000000
v -0.000000 1.443332 -2.385301
vt 0.905430 0.156929
vn -0.000000 1.000000 0.000000
v -0.000000 1.443332 -1.818037
vt 0.905429 0.237590
vn -0.000000 1.000000 0.000000
v -0.000000 0.000000 0.000000
vt 0.595746 0.011127
vn 1.000000 0.000000 0.000000
v -0.000000 1.362129 0.000000
vt 0.595722 0.209628
vn 1.000000 0.000000 0.000000
v -0.000000 1.280926 -0.164698
vt 0.619726 0.197795
vn 1.000000 0.000000 0.000000
v -0.000000 0.080566 -0.164698
vt 0.619745 0.022871
vn 1.000000 0.000000 0.000000
v -0.000000 1.443332 -0.164698
vt 0.619723 0.221465
vn 1.000000 0.000000 0.000000
v -0.000000 2.551511 -0.164698
vt 0.619702 0.382957
vn 1.000000 0.000000 0.000000
v -0.000000 2.828242 0.000000
vt 0.595698 0.422913
vn 1.000000 0.000000 0.000000
v -0.000000 1.749250 -0.909074
vt 0.429901 0.252095
vn 1.000000 0.000000 0.000000
v -0.000000 0.080566 -0.909074
vt 0.429859 0.008920
vn 1.000000 0.000000 0.000000
v -0.000000 0.080566 -0.731963
vt 0.404047 0.008924
vn 1.000000 0.000000 0.000000
v -0.000000 1.280926 -0.731963
vt 0.404080 0.183852
vn 1.000000 0.000000 0.000000
v -0.000000 1.443332 -0.731963
vt 0.404084 0.207518
vn 1.000000 0.000000 0.000000
v -0.000000 1.917593 -0.909074
vt 0.429906 0.276629
vn 1.000000 0.000000 0.000000
v -0.000000 2.551511 -0.909074
vt 0.429922 0.369008
vn 1.000000 0.000000 0.000000
v -0.000000 2.551511 -0.731963
vt 0.404111 0.369013
vn 1.000000 0.000000 0.000000
v -0.000000 2.551511 -0.731963
vt 0.404111 0.369013
vn -0.000000 0.000000 1.000000
v -0.000000 1.443332 -0.731963
vt 0.404084 0.207518
vn -0.000000 0.000000 1.000000
v -0.151479 1.443332 -0.731963
vt 0.382009 0.207521
vn -0.000000 0.000000 1.000000
v -0.151479 2.551511 -0.731963
vt 0.382037 0.369017
vn -0.000000 0.000000 1.000000
v -0.151479 0.080566 -0.731963
vt 0.381972 0.008928
vn -0.000000 0.000000 1.000000
v -0.151479 1.280926 -0.731963
vt 0.382004 0.183854
vn -0.000000 0.000000 1.000000
v -0.000000 1.280926 -0.731963
vt 0.404080 0.183852
vn -0.000000 0.000000 1.000000
v -0.000000 0.080566 -0.731963
vt 0.404047 0.008924
vn -0.000000 0.000000 1.000000
v -0.000000 0.080566 -0.909074
vt 0.429859 0.008920
vn -0.000000 0.000000 -1.000000
v -0.000000 1.749250 -0.909074
vt 0.429901 0.252095
vn -0.000000 0.000000 -1.000000
v -0.151479 1.749250 -0.909074
vt 0.451975 0.252091
vn -0.000000 0.000000 -1.000000
v -0.151479 0.080566 -0.909074
vt 0.451932 0.008915
vn -0.000000 0.000000 -1.000000
v -0.000000 1.917593 -0.909074
vt 0.429906 0.276629
vn -0.000000 0.000000 -1.000000
v -0.000000 2.551511 -0.909074
vt 0.429922 0.369008
vn -0.000000 0.000000 -1.000000
v -0.151479 2.551511 -0.909074
vt 0.451998 0.369005
vn -0.000000 0.000000 -1.000000
v -0.151479 1.917593 -0.909074
vt 0.451980 0.276625
vn -0.000000 0.000000 -1.000000
v -0.151479 0.080566 -1.640926
vt 0.764695 0.141602
vn -0.000000 1.000000 0.000000
v -0.000000 0.080566 -1.640926
vt 0.742620 0.141603
vn -0.000000 1.000000 0.000000
v -0.000000 0.080566 -0.909074
vt 0.742624 0.248253
vn -0.000000 1.000000 0.000000
v -0.151479 0.080566 -0.909074
vt 0.764699 0.248252
vn -0.000000 1.000000 0.000000
v -0.151479 1.749250 -1.640926
vt 0.228135 0.255492
vn 1.000000 0.000000 0.000000
v -0.151479 0.080566 -1.640926
vt 0.228136 0.012315
vn 1.000000 0.000000 0.000000
v -0.151479 0.080566 -0.909074
vt 0.121484 0.012314
vn 1.000000 0.000000 0.000000
v -0.151479 1.749250 -0.909074
vt 0.121484 0.255491
vn 1.000000 0.000000 0.000000
v -0.000000 1.749250 -1.640926
vt 0.905510 0.115190
vn -0.000000 -1.000000 0.000000
v -0.151479 1.749250 -1.640926
vt 0.927186 0.115192
vn -0.000000 -1.000000 0.000000
v -0.151479 1.749250 -0.909074
vt 0.927185 0.010465
vn -0.000000 -1.000000 0.000000
v -0.000000 1.749250 -0.909074
vt 0.905509 0.010464
vn -0.000000 -1.000000 0.000000
v -0.000000 1.917593 -1.640926
vt 0.878886 0.115191
vn 1.000000 0.000000 0.000000
v -0.000000 1.749250 -1.640926
vt 0.905510 0.115190
vn 1.000000 0.000000 0.000000
v -0.000000 1.749250 -0.909074
vt 0.905509 0.010464
vn 1.000000 0.000000 0.000000
v -0.000000 1.917593 -0.909074
vt 0.878885 0.010465
vn 1.000000 0.000000 0.000000
v -0.151479 1.917593 -1.640926
vt 0.857241 0.115190
vn -0.000000 1.000000 0.000000
v -0.000000 1.917593 -1.640926
vt 0.878886 0.115191
vn -0.000000 1.000000 0.000000
v -0.000000 1.917593 -0.909074
vt 0.878885 0.010465
vn -0.000000 1.000000 0.000000
v -0.151479 1.917593 -0.909074
vt 0.857240 0.010464
vn -0.000000 1.000000 0.000000
v -0.151479 2.551511 -1.640926
vt 0.228137 0.366703
vn 1.000000 0.000000 0.000000
v -0.151479 1.917593 -1.640926
vt 0.228134 0.274323
vn 1.000000 0.000000 0.000000
v -0.151479 1.917593 -0.909074
vt 0.121483 0.274327
vn 1.000000 0.000000 0.000000
v -0.151479 2.551511 -0.909074
vt 0.121488 0.366706
vn 1.000000 0.000000 0.000000
v -0.000000 2.551511 -1.640926
vt 0.806124 0.142052
vn -0.000000 -1.000000 0.000000
v -0.151479 2.551511 -1.640926
vt 0.784050 0.142054
vn -0.000000 -1.000000 0.000000
v -0.151479 2.551511 -0.909074
vt 0.784067 0.248705
vn -0.000000 -1.000000 0.000000
v -0.000000 2.551511 -0.909074
vt 0.806140 0.248700
vn -0.000000 -1.000000 0.000000
v -0.000000 1.362129 0.000000
vt 0.595722 0.209628
vn -0.000000 0.000000 1.000000
v -0.000000 0.000000 0.000000
vt 0.595750 0.011128
vn -0.000000 0.000000 1.000000
v -0.240972 0.000000 0.000000
vt 0.560632 0.011123
vn -0.000000 0.000000 1.000000
v -0.240972 1.362129 0.000000
vt 0.560605 0.209624
vn -0.000000 0.000000 1.000000
v -0.240972 2.828242 0.000000
vt 0.560580 0.422908
vn -0.000000 0.000000 1.000000
v -0.000000 2.828242 0.000000
vt 0.595698 0.422913
vn -0.000000 0.000000 1.000000
v -0.151479 0.080566 -0.731963
vt 0.764700 0.274066
vn -0.000000 1.000000 0.000000
v -0.000000 0.080566 -0.731963
vt 0.742624 0.274065
vn -0.000000 1.000000 0.000000
v -0.000000 0.080566 -0.164698
vt 0.742625 0.356729
vn -0.000000 1.000000 0.000000
v -0.151479 0.080566 -0.164698
vt 0.764700 0.356729
vn -0.000000 1.000000 0.000000
v -0.151479 1.280926 -0.731963
vt 0.099511 0.187096
vn 1.000000 0.000000 0.000000
v -0.151479 0.080566 -0.731963
vt 0.099510 0.012169
vn 1.000000 0.000000 0.000000
v -0.151479 0.080566 -0.164698
vt 0.016844 0.012170
vn 1.000000 0.000000 0.000000
v -0.151479 1.280926 -0.164698
vt 0.016844 0.187097
vn 1.000000 0.000000 0.000000
v -0.000000 1.280926 -0.731963
vt 0.904055 0.333436
vn -0.000000 -1.000000 0.000000
v -0.151479 1.280926 -0.731963
vt 0.925594 0.333435
vn -0.000000 -1.000000 0.000000
v -0.151479 1.280926 -0.164698
vt 0.925594 0.252773
vn -0.000000 -1.000000 0.000000
v -0.000000 1.280926 -0.164698
vt 0.904056 0.252775
vn -0.000000 -1.000000 0.000000
v -0.000000 1.443332 -0.731963
vt 0.877600 0.333435
vn 1.000000 0.000000 0.000000
v -0.000000 1.280926 -0.731963
vt 0.904055 0.333436
vn 1.000000 0.000000 0.000000
v -0.000000 1.280926 -0.164698
vt 0.904056 0.252775
vn 1.000000 0.000000 0.000000
v -0.000000 1.443332 -0.164698
vt 0.877599 0.252774
vn 1.000000 0.000000 0.000000
v -0.151479 1.443332 -0.731963
vt 0.856092 0.333436
vn -0.000000 1.000000 0.000000
v -0.000000 1.443332 -0.731963
vt 0.877600 0.333435
vn -0.000000 1.000000 0.000000
v -0.000000 1.443332 -0.164698
vt 0.877599 0.252774
vn -0.000000 1.000000 0.000000
v -0.151479 1.443332 -0.164698
vt 0.856091 0.252773
vn -0.000000 1.000000 0.000000
v -0.151479 2.551511 -0.731963
vt 0.099511 0.366993
vn 1.000000 0.000000 -0.000000
v -0.151479 1.443332 -0.731963
vt 0.099511 0.205499
vn 1.000000 0.000000 -0.000000
v -0.151479 1.443332 -0.164698
vt 0.016845 0.205499
vn 1.000000 0.000000 -0.000000
v -0.151479 2.551511 -0.164698
vt 0.016844 0.366992
vn 1.000000 0.000000 -0.000000
v -0.000000 2.551511 -0.731963
vt 0.806146 0.274511
vn -0.000000 -1.000000 0.000000
v -0.151479 2.551511 -0.731963
vt 0.784072 0.274517
vn -0.000000 -1.000000 0.000000
v -0.151479 2.551511 -0.164698
vt 0.784083 0.357181
vn -0.000000 -1.000000 0.000000
v -0.000000 2.551511 -0.164698
vt 0.806159 0.357177
vn -0.000000 -1.000000 0.000000
v -0.000000 1.443332 -0.164698
vt 0.619723 0.221465
vn -0.000000 0.000000 -1.000000
v -0.000000 2.551511 -0.164698
vt 0.619702 0.382957
vn -0.000000 0.000000 -1.000000
v -0.151479 2.551511 -0.164698
vt 0.641776 0.382960
vn -0.000000 0.000000 -1.000000
v -0.151479 1.443332 -0.164698
vt 0.641798 0.221468
vn -0.000000 0.000000 -1.000000
v -0.000000 0.080566 -0.164698
vt 0.619745 0.022871
vn -0.000000 0.000000 -1.000000
v -0.000000 1.280926 -0.164698
vt 0.619726 0.197795
vn -0.000000 0.000000 -1.000000
v -0.151479 1.280926 -0.164698
vt 0.641800 0.197800
vn -0.000000 0.000000 -1.000000
v -0.151479 0.080566 -0.164698
vt 0.641821 0.022874
vn -0.000000 0.000000 -1.000000
# Faces (1 to 222)
g GarageWalls_Segment_EndCap_02_0
f -220/-220/-220 -221/-221/-221 -222/-222/-222
f -219/-219/-219 -220/-220/-220 -222/-222/-222
f -219/-219/-219 -218/-218/-218 -220/-220/-220
f -217/-217/-217 -218/-218/-218 -219/-219/-219
f -216/-216/-216 -217/-217/-217 -219/-219/-219
f -213/-213/-213 -214/-214/-214 -215/-215/-215
f -212/-212/-212 -213/-213/-213 -215/-215/-215
f -215/-215/-215 -214/-214/-214 -211/-211/-211
f -210/-210/-210 -215/-215/-215 -211/-211/-211
f -207/-207/-207 -208/-208/-208 -209/-209/-209
f -206/-206/-206 -207/-207/-207 -209/-209/-209
f -203/-203/-203 -204/-204/-204 -205/-205/-205
f -202/-202/-202 -203/-203/-203 -205/-205/-205
f -199/-199/-199 -200/-200/-200 -201/-201/-201
f -198/-198/-198 -199/-199/-199 -201/-201/-201
f -199/-199/-199 -198/-198/-198 -197/-197/-197
f -196/-196/-196 -199/-199/-199 -197/-197/-197
f -195/-195/-195 -196/-196/-196 -197/-197/-197
f -194/-194/-194 -195/-195/-195 -197/-197/-197
f -191/-191/-191 -192/-192/-192 -193/-193/-193
f -190/-190/-190 -191/-191/-191 -193/-193/-193
f -192/-192/-192 -191/-191/-191 -189/-189/-189
f -191/-191/-191 -188/-188/-188 -189/-189/-189
f -192/-192/-192 -187/-187/-187 -193/-193/-193
f -187/-187/-187 -186/-186/-186 -193/-193/-193
f -186/-186/-186 -187/-187/-187 -185/-185/-185
f -185/-185/-185 -187/-187/-187 -184/-184/-184
f -187/-187/-187 -183/-183/-183 -184/-184/-184
f -183/-183/-183 -187/-187/-187 -192/-192/-192
f -189/-189/-189 -183/-183/-183 -192/-192/-192
f -182/-182/-182 -186/-186/-186 -185/-185/-185
f -179/-179/-179 -180/-180/-180 -181/-181/-181
f -178/-178/-178 -179/-179/-179 -181/-181/-181
f -180/-180/-180 -177/-177/-177 -181/-181/-181
f -177/-177/-177 -176/-176/-176 -181/-181/-181
f -177/-177/-177 -175/-175/-175 -176/-176/-176
f -175/-175/-175 -174/-174/-174 -176/-176/-176
f -171/-171/-171 -172/-172/-172 -173/-173/-173
f -170/-170/-170 -171/-171/-171 -173/-173/-173
f -171/-171/-171 -170/-170/-170 -169/-169/-169
f -168/-168/-168 -171/-171/-171 -169/-169/-169
f -167/-167/-167 -168/-168/-168 -169/-169/-169
f -166/-166/-166 -168/-168/-168 -167/-167/-167
f -168/-168/-168 -166/-166/-166 -165/-165/-165
f -164/-164/-164 -168/-168/-168 -165/-165/-165
f -161/-161/-161 -162/-162/-162 -163/-163/-163
f -160/-160/-160 -161/-161/-161 -163/-163/-163
f -159/-159/-159 -161/-161/-161 -160/-160/-160
f -158/-158/-158 -159/-159/-159 -160/-160/-160
f -157/-157/-157 -158/-158/-158 -160/-160/-160
f -156/-156/-156 -158/-158/-158 -157/-157/-157
f -156/-156/-156 -157/-157/-157 -155/-155/-155
f -154/-154/-154 -156/-156/-156 -155/-155/-155
f -151/-151/-151 -152/-152/-152 -153/-153/-153
f -150/-150/-150 -151/-151/-151 -153/-153/-153
f -152/-152/-152 -149/-149/-149 -153/-153/-153
f -149/-149/-149 -148/-148/-148 -153/-153/-153
f -148/-148/-148 -149/-149/-149 -147/-147/-147
f -149/-149/-149 -146/-146/-146 -147/-147/-147
f -143/-143/-143 -144/-144/-144 -145/-145/-145
f -142/-142/-142 -143/-143/-143 -145/-145/-145
f -139/-139/-139 -140/-140/-140 -141/-141/-141
f -138/-138/-138 -139/-139/-139 -141/-141/-141
f -135/-135/-135 -136/-136/-136 -137/-137/-137
f -134/-134/-134 -135/-135/-135 -137/-137/-137
f -131/-131/-131 -132/-132/-132 -133/-133/-133
f -130/-130/-130 -131/-131/-131 -133/-133/-133
f -127/-127/-127 -128/-128/-128 -129/-129/-129
f -126/-126/-126 -127/-127/-127 -129/-129/-129
f -123/-123/-123 -124/-124/-124 -125/-125/-125
f -122/-122/-122 -123/-123/-123 -125/-125/-125
f -119/-119/-119 -120/-120/-120 -121/-121/-121
f -118/-118/-118 -119/-119/-119 -121/-121/-121
f -115/-115/-115 -116/-116/-116 -117/-117/-117
f -114/-114/-114 -115/-115/-115 -117/-117/-117
f -111/-111/-111 -112/-112/-112 -113/-113/-113
f -110/-110/-110 -111/-111/-111 -113/-113/-113
f -107/-107/-107 -108/-108/-108 -109/-109/-109
f -106/-106/-106 -107/-107/-107 -109/-109/-109
f -103/-103/-103 -104/-104/-104 -105/-105/-105
f -102/-102/-102 -103/-103/-103 -105/-105/-105
f -99/-99/-99 -100/-100/-100 -101/-101/-101
f -98/-98/-98 -99/-99/-99 -101/-101/-101
f -97/-97/-97 -100/-100/-100 -99/-99/-99
f -97/-97/-97 -96/-96/-96 -100/-100/-100
f -96/-96/-96 -95/-95/-95 -100/-100/-100
f -92/-92/-92 -93/-93/-93 -94/-94/-94
f -91/-91/-91 -92/-92/-92 -94/-94/-94
f -90/-90/-90 -91/-91/-91 -94/-94/-94
f -89/-89/-89 -90/-90/-90 -94/-94/-94
f -90/-90/-90 -89/-89/-89 -88/-88/-88
f -87/-87/-87 -90/-90/-90 -88/-88/-88
f -84/-84/-84 -85/-85/-85 -86/-86/-86
f -83/-83/-83 -84/-84/-84 -86/-86/-86
f -80/-80/-80 -81/-81/-81 -82/-82/-82
f -79/-79/-79 -80/-80/-80 -82/-82/-82
f -76/-76/-76 -77/-77/-77 -78/-78/-78
f -75/-75/-75 -76/-76/-76 -78/-78/-78
f -72/-72/-72 -73/-73/-73 -74/-74/-74
f -71/-71/-71 -72/-72/-72 -74/-74/-74
f -68/-68/-68 -69/-69/-69 -70/-70/-70
f -67/-67/-67 -68/-68/-68 -70/-70/-70
f -64/-64/-64 -65/-65/-65 -66/-66/-66
f -63/-63/-63 -64/-64/-64 -66/-66/-66
f -60/-60/-60 -61/-61/-61 -62/-62/-62
f -59/-59/-59 -60/-60/-60 -62/-62/-62
f -56/-56/-56 -57/-57/-57 -58/-58/-58
f -55/-55/-55 -56/-56/-56 -58/-58/-58
f -52/-52/-52 -53/-53/-53 -54/-54/-54
f -51/-51/-51 -52/-52/-52 -54/-54/-54
f -48/-48/-48 -49/-49/-49 -50/-50/-50
f -47/-47/-47 -48/-48/-48 -50/-50/-50
f -44/-44/-44 -45/-45/-45 -46/-46/-46
f -43/-43/-43 -44/-44/-44 -46/-46/-46
f -40/-40/-40 -41/-41/-41 -42/-42/-42
f -39/-39/-39 -40/-40/-40 -42/-42/-42
f -39/-39/-39 -42/-42/-42 -38/-38/-38
f -42/-42/-42 -37/-37/-37 -38/-38/-38
f -34/-34/-34 -35/-35/-35 -36/-36/-36
f -33/-33/-33 -34/-34/-34 -36/-36/-36
f -30/-30/-30 -31/-31/-31 -32/-32/-32
f -29/-29/-29 -30/-30/-30 -32/-32/-32
f -26/-26/-26 -27/-27/-27 -28/-28/-28
f -25/-25/-25 -26/-26/-26 -28/-28/-28
f -22/-22/-22 -23/-23/-23 -24/-24/-24
f -21/-21/-21 -22/-22/-22 -24/-24/-24
f -18/-18/-18 -19/-19/-19 -20/-20/-20
f -17/-17/-17 -18/-18/-18 -20/-20/-20
f -14/-14/-14 -15/-15/-15 -16/-16/-16
f -13/-13/-13 -14/-14/-14 -16/-16/-16
f -10/-10/-10 -11/-11/-11 -12/-12/-12
f -9/-9/-9 -10/-10/-10 -12/-12/-12
f -6/-6/-6 -7/-7/-7 -8/-8/-8
f -5/-5/-5 -6/-6/-6 -8/-8/-8
f -2/-2/-2 -3/-3/-3 -4/-4/-4
f -1/-1/-1 -2/-2/-2 -4/-4/-4

