# Mesh "PortalGun_Dial" exported with Unity Assets Bundle Extractor; 67 vertices, 240 indices, 384 bits per vertex
g PortalGun_Dial
# SubMesh 0
# Vertices
v 0.016934 -0.001027 -0.007014
vt 0.346457 0.783333
vn 0.920057 0.090895 -0.381094
v 0.018329 -0.001027 0.000000
vt 0.349171 0.794739
vn 0.995860 0.090900 0.000001
v 0.017282 -0.000000 0.000000
vt 0.351318 0.793761
vn 0.130767 0.991413 0.000000
v 0.015967 -0.000000 -0.006614
vt 0.348815 0.783251
vn 0.120814 0.991413 -0.050042
v 0.012961 -0.001027 -0.012961
vt 0.348315 0.771757
vn 0.704184 0.090893 -0.704176
v 0.012221 -0.000000 -0.012221
vt 0.350524 0.772583
vn 0.092458 0.991414 -0.092467
v 0.007014 -0.001027 -0.016934
vt 0.354461 0.761772
vn 0.381093 0.090891 -0.920058
v 0.006614 -0.000000 -0.015967
vt 0.356186 0.763381
vn 0.050043 0.991413 -0.120812
v 0.000000 -0.001027 -0.018329
vt 0.363960 0.754900
vn -0.000001 0.090889 -0.995861
v 0.000000 -0.000000 -0.017282
vt 0.364938 0.757046
vn 0.000009 0.991414 -0.130763
v -0.007014 -0.001027 -0.016934
vt 0.375367 0.752186
vn -0.381094 0.090890 -0.920058
v -0.006614 -0.000000 -0.015967
vt 0.375448 0.754543
vn -0.050041 0.991413 -0.120818
v -0.012961 -0.001027 -0.012961
vt 0.386943 0.754043
vn -0.704176 0.090896 -0.704183
v -0.012220 -0.000000 -0.012221
vt 0.386117 0.756253
vn -0.092465 0.991414 -0.092455
v -0.016934 -0.001027 -0.007014
vt 0.396927 0.760190
vn -0.920056 0.090897 -0.381098
v -0.015967 -0.000000 -0.006614
vt 0.395319 0.761914
vn -0.120812 0.991414 -0.050035
v -0.018329 -0.001027 0.000000
vt 0.403800 0.769689
vn -0.995860 0.090898 -0.000000
v -0.017282 -0.000000 0.000000
vt 0.401654 0.770667
vn -0.130763 0.991414 -0.000006
v -0.016934 -0.001027 0.007014
vt 0.406514 0.781095
vn -0.920053 0.090899 0.381102
v -0.015967 -0.000000 0.006614
vt 0.404156 0.781177
vn -0.120811 0.991414 0.050038
v -0.012961 -0.001027 0.012961
vt 0.404657 0.792672
vn -0.704183 0.090901 0.704176
v -0.012220 -0.000000 0.012220
vt 0.402447 0.791845
vn -0.092464 0.991413 0.092466
v -0.007014 -0.001027 0.016934
vt 0.398510 0.802656
vn -0.381099 0.090899 0.920055
v -0.006614 -0.000000 0.015967
vt 0.396785 0.801047
vn -0.050042 0.991413 0.120814
v 0.000000 -0.001027 0.018329
vt 0.389011 0.809528
vn 0.000002 0.090901 0.995860
v -0.000000 -0.000000 0.017282
vt 0.388033 0.807382
vn 0.000008 0.991414 0.130764
v 0.007014 -0.001027 0.016934
vt 0.377605 0.812243
vn 0.381103 0.090899 0.920053
v 0.006614 -0.000000 0.015967
vt 0.377523 0.809885
vn 0.050044 0.991414 0.120808
v 0.012961 -0.001027 0.012961
vt 0.366028 0.810385
vn 0.704184 0.090899 0.704175
v 0.012221 -0.000000 0.012220
vt 0.366855 0.808175
vn 0.092457 0.991414 0.092464
v 0.016934 -0.001027 0.007014
vt 0.356044 0.804239
vn 0.920054 0.090898 0.381100
v 0.015967 -0.000000 0.006614
vt 0.357653 0.802514
vn 0.120813 0.991413 0.050040
v -0.000000 -0.000000 0.000000
vt 0.376486 0.782214
vn 0.000002 1.000000 0.000000
v 0.016934 -0.010271 -0.007014
vt 0.179586 0.856638
vn 0.923881 0.000001 -0.382680
v 0.016934 -0.001027 -0.007014
vt 0.179586 0.841820
vn 0.920057 0.090895 -0.381094
v 0.012961 -0.001027 -0.012961
vt 0.168122 0.841820
vn 0.704184 0.090893 -0.704176
v 0.012961 -0.010271 -0.012961
vt 0.168122 0.856638
vn 0.707110 -0.000002 -0.707103
v 0.007014 -0.001027 -0.016934
vt 0.156658 0.841820
vn 0.381093 0.090891 -0.920058
v 0.007014 -0.010271 -0.016934
vt 0.156658 0.856638
vn 0.382674 -0.000001 -0.923883
v 0.000000 -0.001027 -0.018329
vt 0.145194 0.841820
vn -0.000001 0.090889 -0.995861
v 0.000000 -0.010271 -0.018329
vt 0.145194 0.856638
vn 0.000001 -0.000000 -1.000000
v -0.007014 -0.001027 -0.016934
vt 0.133730 0.841821
vn -0.381094 0.090890 -0.920058
v -0.007014 -0.010271 -0.016934
vt 0.133730 0.856638
vn -0.382679 0.000000 -0.923881
v -0.012961 -0.001027 -0.012961
vt 0.122266 0.841820
vn -0.704176 0.090896 -0.704183
v -0.012961 -0.010271 -0.012961
vt 0.122266 0.856638
vn -0.707104 0.000001 -0.707110
v -0.016934 -0.001027 -0.007014
vt 0.110802 0.841820
vn -0.920056 0.090897 -0.381098
v -0.016934 -0.010271 -0.007014
vt 0.110802 0.856638
vn -0.923879 0.000000 -0.382684
v -0.018329 -0.001027 0.000000
vt 0.099338 0.841820
vn -0.995860 0.090898 -0.000000
v -0.018329 -0.010271 0.000000
vt 0.099338 0.856638
vn -1.000000 0.000001 0.000000
v -0.016934 -0.001027 0.007014
vt 0.087874 0.841820
vn -0.920053 0.090899 0.381102
v -0.016934 -0.010271 0.007014
vt 0.087874 0.856638
vn -0.923877 0.000001 0.382689
v -0.012961 -0.001027 0.012961
vt 0.076410 0.841820
vn -0.704183 0.090901 0.704176
v -0.012961 -0.010271 0.012961
vt 0.076409 0.856638
vn -0.707111 0.000001 0.707103
v -0.007014 -0.001027 0.016934
vt 0.064945 0.841820
vn -0.381099 0.090899 0.920055
v -0.007014 -0.010271 0.016934
vt 0.064945 0.856638
vn -0.382684 0.000000 0.923879
v 0.000000 -0.001027 0.018329
vt 0.053481 0.841820
vn 0.000002 0.090901 0.995860
v 0.000000 -0.010271 0.018329
vt 0.053481 0.856638
vn 0.000005 -0.000000 1.000000
v 0.007014 -0.001027 0.016934
vt 0.042017 0.841820
vn 0.381103 0.090899 0.920053
v 0.007014 -0.010271 0.016934
vt 0.042017 0.856638
vn 0.382685 -0.000001 0.923879
v 0.012961 -0.001027 0.012961
vt 0.030553 0.841820
vn 0.704184 0.090899 0.704175
v 0.012961 -0.010271 0.012961
vt 0.030553 0.856638
vn 0.707110 -0.000001 0.707103
v 0.016934 -0.001027 0.007014
vt 0.019089 0.841820
vn 0.920054 0.090898 0.381100
v 0.016934 -0.010271 0.007014
vt 0.019089 0.856638
vn 0.923879 0.000002 0.382684
v 0.018329 -0.001027 0.000000
vt 0.007625 0.841820
vn 0.995860 0.090900 0.000001
v 0.018329 -0.010271 0.000000
vt 0.007625 0.856638
vn 1.000000 0.000004 0.000001
v 0.018329 -0.010271 0.000000
vt 0.191050 0.856638
vn 1.000000 0.000004 0.000001
v 0.018329 -0.001027 0.000000
vt 0.191050 0.841820
vn 0.995860 0.090900 0.000001
# Faces (1 to 67)
g PortalGun_Dial_0
f -65/-65/-65 -66/-66/-66 -67/-67/-67
f -64/-64/-64 -65/-65/-65 -67/-67/-67
f -67/-67/-67 -63/-63/-63 -64/-64/-64
f -63/-63/-63 -62/-62/-62 -64/-64/-64
f -63/-63/-63 -61/-61/-61 -62/-62/-62
f -61/-61/-61 -60/-60/-60 -62/-62/-62
f -61/-61/-61 -59/-59/-59 -60/-60/-60
f -59/-59/-59 -58/-58/-58 -60/-60/-60
f -59/-59/-59 -57/-57/-57 -58/-58/-58
f -57/-57/-57 -56/-56/-56 -58/-58/-58
f -57/-57/-57 -55/-55/-55 -56/-56/-56
f -55/-55/-55 -54/-54/-54 -56/-56/-56
f -55/-55/-55 -53/-53/-53 -54/-54/-54
f -53/-53/-53 -52/-52/-52 -54/-54/-54
f -53/-53/-53 -51/-51/-51 -52/-52/-52
f -51/-51/-51 -50/-50/-50 -52/-52/-52
f -51/-51/-51 -49/-49/-49 -50/-50/-50
f -49/-49/-49 -48/-48/-48 -50/-50/-50
f -49/-49/-49 -47/-47/-47 -48/-48/-48
f -47/-47/-47 -46/-46/-46 -48/-48/-48
f -47/-47/-47 -45/-45/-45 -46/-46/-46
f -45/-45/-45 -44/-44/-44 -46/-46/-46
f -45/-45/-45 -43/-43/-43 -44/-44/-44
f -43/-43/-43 -42/-42/-42 -44/-44/-44
f -43/-43/-43 -41/-41/-41 -42/-42/-42
f -41/-41/-41 -40/-40/-40 -42/-42/-42
f -41/-41/-41 -39/-39/-39 -40/-40/-40
f -39/-39/-39 -38/-38/-38 -40/-40/-40
f -39/-39/-39 -37/-37/-37 -38/-38/-38
f -37/-37/-37 -36/-36/-36 -38/-38/-38
f -37/-37/-37 -66/-66/-66 -36/-36/-36
f -66/-66/-66 -65/-65/-65 -36/-36/-36
f -46/-46/-46 -35/-35/-35 -48/-48/-48
f -44/-44/-44 -35/-35/-35 -46/-46/-46
f -42/-42/-42 -35/-35/-35 -44/-44/-44
f -40/-40/-40 -35/-35/-35 -42/-42/-42
f -38/-38/-38 -35/-35/-35 -40/-40/-40
f -36/-36/-36 -35/-35/-35 -38/-38/-38
f -65/-65/-65 -35/-35/-35 -36/-36/-36
f -48/-48/-48 -35/-35/-35 -50/-50/-50
f -50/-50/-50 -35/-35/-35 -52/-52/-52
f -52/-52/-52 -35/-35/-35 -54/-54/-54
f -54/-54/-54 -35/-35/-35 -56/-56/-56
f -56/-56/-56 -35/-35/-35 -58/-58/-58
f -58/-58/-58 -35/-35/-35 -60/-60/-60
f -60/-60/-60 -35/-35/-35 -62/-62/-62
f -62/-62/-62 -35/-35/-35 -64/-64/-64
f -64/-64/-64 -35/-35/-35 -65/-65/-65
f -32/-32/-32 -33/-33/-33 -34/-34/-34
f -31/-31/-31 -32/-32/-32 -34/-34/-34
f -30/-30/-30 -32/-32/-32 -31/-31/-31
f -29/-29/-29 -30/-30/-30 -31/-31/-31
f -28/-28/-28 -30/-30/-30 -29/-29/-29
f -27/-27/-27 -28/-28/-28 -29/-29/-29
f -26/-26/-26 -28/-28/-28 -27/-27/-27
f -25/-25/-25 -26/-26/-26 -27/-27/-27
f -24/-24/-24 -26/-26/-26 -25/-25/-25
f -23/-23/-23 -24/-24/-24 -25/-25/-25
f -22/-22/-22 -24/-24/-24 -23/-23/-23
f -21/-21/-21 -22/-22/-22 -23/-23/-23
f -20/-20/-20 -22/-22/-22 -21/-21/-21
f -19/-19/-19 -20/-20/-20 -21/-21/-21
f -18/-18/-18 -20/-20/-20 -19/-19/-19
f -17/-17/-17 -18/-18/-18 -19/-19/-19
f -16/-16/-16 -18/-18/-18 -17/-17/-17
f -15/-15/-15 -16/-16/-16 -17/-17/-17
f -14/-14/-14 -16/-16/-16 -15/-15/-15
f -13/-13/-13 -14/-14/-14 -15/-15/-15
f -12/-12/-12 -14/-14/-14 -13/-13/-13
f -11/-11/-11 -12/-12/-12 -13/-13/-13
f -10/-10/-10 -12/-12/-12 -11/-11/-11
f -9/-9/-9 -10/-10/-10 -11/-11/-11
f -8/-8/-8 -10/-10/-10 -9/-9/-9
f -7/-7/-7 -8/-8/-8 -9/-9/-9
f -6/-6/-6 -8/-8/-8 -7/-7/-7
f -5/-5/-5 -6/-6/-6 -7/-7/-7
f -4/-4/-4 -6/-6/-6 -5/-5/-5
f -3/-3/-3 -4/-4/-4 -5/-5/-5
f -33/-33/-33 -1/-1/-1 -2/-2/-2
f -34/-34/-34 -33/-33/-33 -2/-2/-2

